<svg width="249" height="178" viewBox="0 0 249 178" fill="none" xmlns="http://www.w3.org/2000/svg">
<path fill-rule="evenodd" clip-rule="evenodd" d="M62.2195 16.6311L62.9945 16.6243L71.4391 38.5962L76.6438 42.7987L80.4804 31.0462L81.2582 31.0377L87.1079 48.5526L102.016 34.7981L102.693 35.0823L89.3985 55.0368L86.7181 49.8316L85.5679 50.8928L77.0878 44.0812L75.7196 50.4942L74.943 50.5062L70.7077 38.8451L63.8098 51.8078L55.1245 39.0861L51.2169 51.4827L48.2721 45.2372L41.8777 50.9116L39.5916 48.5459L38.5944 54.9656L37.8283 55.0368L26.5765 35.0655L27.2773 34.8103L39.0348 46.9776L41.5059 31.0705L42.2791 31.0131L48.5584 44.0812L54.3859 38.8451L62.2195 16.6311ZM55.5195 37.833L63.8051 50.9116L70.2496 37.5502L62.6305 17.9117L55.5195 37.833ZM53.9909 40.0981L48.8599 44.7125L51.0595 49.3976L53.9909 40.0981ZM47.9706 44.606L42.1006 32.3949L39.7244 47.6912L41.9252 49.9687L47.9706 44.606ZM38.9021 47.8323L28.6421 37.2148L37.9774 53.7846L38.9021 47.8323ZM71.8972 39.891L75.2885 49.1666L76.4397 43.5113L71.8972 39.891ZM77.2919 43.3686L85.5528 49.9875L86.4834 49.1288L80.9004 32.4124L77.2919 43.3686ZM87.3426 49.2554L89.3985 53.7846L100.339 37.2646L87.3426 49.2554Z" fill="#3F3939" stroke="#3F3939"/>
<path d="M105.961 33.2167C105.961 35.0017 104.626 36.4488 102.979 36.4488C101.332 36.4488 99.9965 35.0017 99.9965 33.2167C99.9965 31.4317 101.332 29.9847 102.979 29.9847C104.626 29.9847 105.961 31.4317 105.961 33.2167Z" fill="#3F3939"/>
<path d="M62.6927 5.43866L65.6588 11.2071L62.6928 16.5427L59.8139 11.2071L62.6927 5.43866Z" fill="#3F3939"/>
<path d="M28.1531 32.5898C28.1531 34.3796 26.8144 35.8305 25.1631 35.8305C23.5118 35.8305 22.1731 34.3796 22.1731 32.5898C22.1731 30.8001 23.5118 29.3492 25.1631 29.3492C26.8144 29.3492 28.1531 30.8001 28.1531 32.5898Z" fill="#3F3939"/>
<mask id="mask0_583_1225" style="mask-type:alpha" maskUnits="userSpaceOnUse" x="11" y="48" width="108" height="111">
<path fill-rule="evenodd" clip-rule="evenodd" d="M64.6349 153.898C91.7323 153.898 113.801 131.283 113.801 103.257C113.801 75.2316 91.7323 52.6165 64.6349 52.6165C37.5374 52.6165 15.4687 75.2316 15.4687 103.257C15.4687 131.283 37.5374 153.898 64.6349 153.898ZM64.6349 158.366C94.2202 158.366 118.204 133.693 118.204 103.257C118.204 72.8214 94.2202 48.1482 64.6349 48.1482C35.0495 48.1482 11.0658 72.8214 11.0658 103.257C11.0658 133.693 35.0495 158.366 64.6349 158.366Z" fill="black"/>
</mask>
<g mask="url(#mask0_583_1225)">
<g filter="url(#filter0_f_583_1225)">
<path d="M80.0324 148.401C81.4906 153.242 112.111 134.569 104.091 144.943C95.3427 152.551 85.8649 156.009 80.0324 157.392C74.1999 158.775 55.2444 159.467 43.5794 153.934C36.8657 150.749 23.5171 145.701 14.4169 123.503C9.31351 111.054 7.85539 92.4956 15.146 79.2397C22.4366 65.9838 32.3664 58.0928 45.0375 52.9585C54.5153 49.1181 66.9093 46.6974 80.0324 49.1181C105.55 53.8249 112.111 67.4823 112.111 67.4823L80.0324 58.4914V148.401Z" fill="#3F3939"/>
</g>
</g>
<path fill-rule="evenodd" clip-rule="evenodd" d="M34.887 93.3091C36.2729 98.5693 37.0848 104.569 32.0669 110.941C30.4973 112.934 29.1536 114.434 28.0183 115.7C27.9114 115.82 27.8064 115.937 27.7033 116.052C26.5186 117.376 25.5271 118.508 24.8178 119.712C23.3286 122.24 23.933 124.623 24.8178 129.823C23.9521 124.736 25.4209 122.646 26.5378 120.75C27.1316 119.742 27.9875 118.752 29.1944 117.403C29.2973 117.288 29.4026 117.171 29.51 117.051C30.6457 115.784 32.0275 114.242 33.6374 112.198C39.2307 105.095 38.2615 98.3095 36.815 92.8194C36.5878 91.9571 36.3553 91.1449 36.1349 90.3751C35.639 88.6427 35.2047 87.1254 35.0308 85.736C34.7912 83.8211 35.0967 82.4718 36.3383 81.4372L35.0533 79.8869C33.0919 81.5213 32.7669 83.6856 33.0515 85.9607C33.2458 87.5131 33.749 89.2724 34.2673 91.0841C34.4779 91.8206 34.6911 92.5657 34.887 93.3091Z" fill="#3F3939"/>
<path d="M40.4655 109.374C45.9129 109.556 56.2292 104.929 56.2292 104.929L54.6486 105.832L54.132 106.249L53.3535 106.77L52.1704 107.427L51.0096 108.015L49.3271 108.688L47.7989 109.249C47.7989 109.249 45.1357 109.546 44.5234 109.54C43.9111 109.534 40.4655 109.374 40.4655 109.374Z" fill="#3F3939"/>
<path d="M38.3927 102.649C46.1498 99.691 57.1343 97.3614 56.168 97.4183L53.1326 97.3451L51.8505 97.3617L50.6416 97.563L49.4575 97.8229L47.9145 98.2041L46.0294 98.7803C46.0294 98.7803 43.716 99.5977 42.7955 99.9971C41.8751 100.396 38.3927 102.649 38.3927 102.649Z" fill="#3F3939"/>
<path fill-rule="evenodd" clip-rule="evenodd" d="M62.0807 128.44L62.0691 128.442L61.9973 128.451L61.7942 128.478C61.6191 128.501 61.3684 128.534 61.0659 128.573C60.4611 128.65 59.6491 128.75 58.8209 128.842C57.9931 128.935 57.1471 129.02 56.4749 129.067C56.1392 129.091 56.0568 129.094 55.8275 129.094C55.7131 129.094 55.3988 129.102 55.3156 129.094C54.923 129.057 53.2923 128.395 54.2491 128.573L55.2401 128.675L55.2413 128.676C55.2473 128.677 54.2491 128.573 55.3353 128.69C55.8275 128.675 56.3238 128.662 56.4322 128.662C56.6487 128.662 56.0998 128.685 56.4322 128.662C57.0965 128.616 57.9364 128.531 58.7626 128.439C59.5882 128.347 60.3982 128.247 61.0019 128.17C61.3037 128.131 61.5538 128.099 61.7285 128.076L61.9309 128.049L61.9963 128.04L62.0046 128.038L62.0462 128.03C62.0828 128.023 62.1367 128.012 62.2061 127.997C62.3449 127.968 62.5453 127.926 62.7916 127.873C63.2841 127.767 63.9596 127.615 64.6914 127.436C66.1626 127.075 68.5114 126.542 69.3981 126.101L68.9069 126.532C67.9773 126.994 66.262 127.471 64.7975 127.831C64.0614 128.011 63.3825 128.163 62.8876 128.27C62.6401 128.324 62.4386 128.366 62.2988 128.395C62.2289 128.41 62.1745 128.421 62.1375 128.428L62.0953 128.437L62.0807 128.44Z" fill="#3F3939"/>
<path fill-rule="evenodd" clip-rule="evenodd" d="M36.0389 134.397C34.8466 131.235 33.4835 126.612 29.3267 124.304C33.8557 126.819 36.5345 130.043 37.9103 133.692C39.2762 137.314 39.3235 141.262 38.765 145.186C38.2067 149.109 37.0303 153.085 35.8841 156.781C35.7561 157.194 35.6287 157.603 35.5025 158.007C34.4877 161.262 33.5578 164.244 33.1089 166.837C32.5982 169.786 32.7739 171.909 33.8361 173.281C34.8756 174.623 37.0304 175.571 41.3576 175.468C45.6527 175.366 51.8292 174.231 60.5428 171.734C69.2428 169.241 80.4164 165.407 94.6852 159.944C122.073 149.458 143.457 153.111 164.56 156.717L165.114 156.812C186.376 160.443 207.414 163.903 234.503 153.053L235.247 154.91C207.6 165.984 186.073 162.42 164.778 158.783L164.311 158.703C143.196 155.096 122.276 151.522 95.4003 161.812C81.1043 167.285 69.8712 171.141 61.0937 173.657C52.3299 176.168 45.9581 177.359 41.4052 177.468C36.8845 177.575 33.8916 176.619 32.2548 174.505C30.6407 172.421 30.6114 169.538 31.1382 166.496C31.6112 163.764 32.5843 160.645 33.5913 157.417C33.7186 157.009 33.8464 156.6 33.9739 156.189C35.1211 152.489 36.2517 148.651 36.7849 144.904C37.3179 141.16 37.2413 137.586 36.0389 134.397Z" fill="#3F3939"/>
<path d="M37.1459 77.9203C37.1459 77.9203 58.5903 82.4548 58.5903 102.935C66.2042 111.639 70.9395 111.342 69.5979 114.066C68.2563 116.79 66.2042 118.372 66.2042 118.372L69.5979 124.322L68.6777 129.626C68.6777 129.626 71.4826 135.535 69.482 137.631C67.4813 139.728 45.5604 143.114 37.7381 140.475" stroke="#3F3939" stroke-width="1.2"/>
<path d="M83.4449 120.767C87.0289 120.082 89.5737 115.198 88.6595 113.651C87.1453 113.584 84.3439 116.659 83.4449 120.767Z" stroke="#3F3939" stroke-width="0.8"/>
<path d="M83.0746 120.919C84.8983 117.754 83.0491 112.479 81.3523 112.101C80.3273 113.193 80.7174 117.415 83.0746 120.919Z" stroke="#3F3939" stroke-width="0.8"/>
<path d="M82.897 120.961C82.0739 117.344 77.1994 114.766 75.7288 115.685C75.7293 117.213 78.85 120.046 82.897 120.961Z" stroke="#3F3939" stroke-width="0.8"/>
<path d="M83.0123 121.589C80.0284 119.344 74.7743 120.734 74.3071 122.476C75.3139 123.666 79.4568 123.697 83.0123 121.589Z" stroke="#3F3939" stroke-width="0.8"/>
<path d="M83.3495 121.59C82.7753 125.238 86.3601 129.49 88.0706 129.21C88.6364 127.803 86.7797 123.993 83.3495 121.59Z" stroke="#3F3939" stroke-width="0.8"/>
<path d="M83.3159 121.223C86.2581 119.13 91.557 120.587 92.064 122.274C91.0808 123.397 86.9275 123.333 83.3159 121.223Z" stroke="#3F3939" stroke-width="0.8"/>
<path d="M83.2747 121.523C83.5811 125.244 79.6601 129.054 77.9606 128.562C77.4962 127.084 79.6465 123.501 83.2747 121.523Z" stroke="#3F3939" stroke-width="0.8"/>
<path fill-rule="evenodd" clip-rule="evenodd" d="M155.559 64.8211H106.83V61.8469H155.559V64.8211Z" fill="#4C3F3F"/>
<path fill-rule="evenodd" clip-rule="evenodd" d="M115.935 89.5297V49.8901H118.506V89.5297H115.935Z" fill="#4C3F3F"/>
<path fill-rule="evenodd" clip-rule="evenodd" d="M141.461 87.0857V49.887H144.032V87.0857H141.461Z" fill="#4C3F3F"/>
<path fill-rule="evenodd" clip-rule="evenodd" d="M117.78 103.98C120.872 98.5612 123.066 92.7352 124.131 89.0571L126.569 90.0017C125.443 93.8908 123.156 99.9561 119.925 105.618C116.716 111.243 112.45 116.69 107.298 119.021L106.362 116.251C110.768 114.258 114.667 109.436 117.78 103.98Z" fill="#4C3F3F"/>
<path fill-rule="evenodd" clip-rule="evenodd" d="M117.771 154.729V104.063H120.341V154.729H117.771Z" fill="#4C3F3F"/>
<path fill-rule="evenodd" clip-rule="evenodd" d="M135.807 126.249C135.881 116.031 136.487 104.271 136.98 95.1522L139.546 95.3379C139.107 103.453 138.583 113.589 138.42 122.854L158.442 101.789L160.172 103.99L138.373 126.924C138.334 134.616 138.626 138.391 139.503 142.106C139.88 143.704 141.016 144.878 142.986 145.647C144.965 146.418 147.575 146.683 150.431 146.585C156.133 146.389 162.395 144.765 165.538 143.513L166.374 146.326C163.01 147.665 156.492 149.352 150.508 149.558C147.521 149.661 144.562 149.4 142.165 148.465C139.759 147.527 137.713 145.813 137.023 142.89C136.024 138.659 135.747 134.437 135.807 126.249Z" fill="#4C3F3F"/>
<path fill-rule="evenodd" clip-rule="evenodd" d="M197.557 83.5525L193.243 60.4484L195.76 59.797L200.075 82.9012L197.557 83.5525Z" fill="#4C3F3F"/>
<path fill-rule="evenodd" clip-rule="evenodd" d="M219.678 91.1365H192.28V88.1623H219.678V91.1365Z" fill="#4C3F3F"/>
<path fill-rule="evenodd" clip-rule="evenodd" d="M204.15 144.037L204.714 52.9227L207.285 52.944L206.721 144.058L204.15 144.037Z" fill="#4C3F3F"/>
<path fill-rule="evenodd" clip-rule="evenodd" d="M217.482 59.1174L213.715 83.4983L211.18 82.9554L214.948 58.5745L217.482 59.1174Z" fill="#4C3F3F"/>
<path fill-rule="evenodd" clip-rule="evenodd" d="M191.025 132.064L197.503 98.1732L200.013 98.808L193.536 132.699L191.025 132.064Z" fill="#4C3F3F"/>
<path fill-rule="evenodd" clip-rule="evenodd" d="M216.635 129.534L212.664 100.314L215.184 100.038L219.155 129.259L216.635 129.534Z" fill="#4C3F3F"/>
<path fill-rule="evenodd" clip-rule="evenodd" d="M182.483 77.4255L171.177 68.3062L172.647 65.8664L183.953 74.9857L182.483 77.4255Z" fill="#4C3F3F"/>
<path fill-rule="evenodd" clip-rule="evenodd" d="M182.574 85.6351H177.565V82.6609H185.477L185.307 84.3226C184.899 88.317 184.084 94.4989 182.959 100.083C182.397 102.872 181.75 105.55 181.026 107.744C180.664 108.842 180.274 109.846 179.852 110.696C179.634 111.134 179.397 111.554 179.137 111.932C181.465 117.162 185.316 128.981 185.316 142.073H182.745C182.745 128.709 178.517 116.677 176.444 112.415L175.913 111.323L176.754 110.532C176.984 110.315 177.282 109.9 177.623 109.214C177.956 108.544 178.292 107.692 178.624 106.684C179.289 104.667 179.906 102.134 180.455 99.4074C181.407 94.6807 182.137 89.4868 182.574 85.6351Z" fill="#4C3F3F"/>
<path fill-rule="evenodd" clip-rule="evenodd" d="M186.025 144.257C182.079 144.162 178.704 144.753 176.056 146.486L174.79 143.897C178.021 141.783 181.935 141.184 186.079 141.284C190.227 141.384 194.76 142.192 199.29 143.037C199.592 143.094 199.893 143.15 200.195 143.207C204.458 144.004 208.714 144.8 212.784 145.1C217.142 145.42 221.178 145.16 224.667 143.784L225.497 146.599C221.551 148.155 217.131 148.4 212.621 148.068C208.421 147.759 204.047 146.94 199.813 146.148C199.502 146.09 199.191 146.032 198.881 145.974C194.325 145.124 189.966 144.352 186.025 144.257Z" fill="#4C3F3F"/>
<path d="M35.4518 76.3958C39.4656 75.6285 42.3156 70.1593 41.2918 68.4258C39.596 68.3514 36.4586 71.7948 35.4518 76.3958Z" stroke="#3F3939" stroke-width="0.8"/>
<path d="M35.037 76.5661C37.0794 73.0212 35.0085 67.1139 33.1082 66.69C31.9603 67.9132 32.3971 72.6418 35.037 76.5661Z" stroke="#3F3939" stroke-width="0.8"/>
<path d="M34.8382 76.6136C33.9164 72.5625 28.4573 69.6754 26.8103 70.7045C26.8108 72.4152 30.3058 75.5878 34.8382 76.6136Z" stroke="#3F3939" stroke-width="0.8"/>
<path d="M34.9673 77.316C31.6256 74.8019 25.7413 76.3591 25.2181 78.3097C26.3456 79.6424 30.9855 79.6774 34.9673 77.316Z" stroke="#3F3939" stroke-width="0.8"/>
<path d="M35.345 77.3174C34.7019 81.4029 38.7166 86.1646 40.6323 85.8515C41.266 84.2761 39.1866 80.0082 35.345 77.3174Z" stroke="#3F3939" stroke-width="0.8"/>
<path d="M35.3073 76.9068C38.6024 74.5626 44.5369 76.1947 45.1047 78.0841C44.0035 79.3413 39.3521 79.27 35.3073 76.9068Z" stroke="#3F3939" stroke-width="0.8"/>
<path d="M35.2612 77.2422C35.6043 81.41 31.213 85.6763 29.3098 85.1253C28.7896 83.4703 31.1979 79.4578 35.2612 77.2422Z" stroke="#3F3939" stroke-width="0.8"/>
<path d="M238.598 151.043C242.213 150.412 244.71 145.541 243.76 143.969C242.227 143.878 239.442 146.925 238.598 151.043Z" stroke="#3F3939" stroke-width="0.8"/>
<path d="M238.256 151.237C239.972 148.095 238.097 142.784 236.448 142.378C235.473 143.456 235.918 147.691 238.256 151.237Z" stroke="#3F3939" stroke-width="0.8"/>
<path d="M238.053 151.284C237.177 147.697 232.291 145.072 230.843 145.957C230.867 147.466 234.015 150.314 238.053 151.284Z" stroke="#3F3939" stroke-width="0.8"/>
<path d="M238.125 151.951C235.114 149.574 229.901 150.933 229.464 152.733C230.487 153.984 234.616 154.083 238.125 151.951Z" stroke="#3F3939" stroke-width="0.8"/>
<path d="M238.45 151.873C237.942 155.496 241.542 159.787 243.224 159.535C243.759 158.143 241.869 154.32 238.45 151.873Z" stroke="#3F3939" stroke-width="0.8"/>
<path d="M238.43 151.465C241.349 149.499 246.685 150.986 247.219 152.617C246.25 153.681 242.084 153.553 238.43 151.465Z" stroke="#3F3939" stroke-width="0.8"/>
<path d="M238.376 151.843C238.746 155.591 234.84 159.359 233.113 158.836C232.619 157.342 234.737 153.774 238.376 151.843Z" stroke="#3F3939" stroke-width="0.8"/>
<defs>
<filter id="filter0_f_583_1225" x="6.1297" y="44.1482" width="109.981" height="118.218" filterUnits="userSpaceOnUse" color-interpolation-filters="sRGB">
<feFlood flood-opacity="0" result="BackgroundImageFix"/>
<feBlend mode="normal" in="SourceGraphic" in2="BackgroundImageFix" result="shape"/>
<feGaussianBlur stdDeviation="2" result="effect1_foregroundBlur_583_1225"/>
</filter>
</defs>
</svg>
